<?xml version="1.0" encoding="UTF-8"?><svg xmlns="http://www.w3.org/2000/svg" xmlns:xlink="http://www.w3.org/1999/xlink" viewBox="0 0 595.28 841.89"><defs><style>.cls-1{clip-path:url(#clippath);}.cls-2{fill:none;}.cls-2,.cls-3,.cls-4,.cls-5,.cls-6,.cls-7,.cls-8,.cls-9,.cls-10,.cls-11,.cls-12,.cls-13,.cls-14,.cls-15{stroke-width:0px;}.cls-3{fill:url(#linear-gradient);}.cls-4{fill:url(#radial-gradient);}.cls-16{clip-path:url(#clippath-1);}.cls-5{fill:url(#radial-gradient-2);}.cls-6{fill:url(#radial-gradient-3);}.cls-7{fill:url(#linear-gradient-4);}.cls-8{fill:url(#linear-gradient-2);}.cls-9{fill:url(#linear-gradient-3);}.cls-10{fill:url(#linear-gradient-7);}.cls-11{fill:url(#linear-gradient-5);}.cls-12{fill:url(#linear-gradient-6);}.cls-13{fill:#292c42;}.cls-14{fill:url(#radial-gradient-4);opacity:.6;}.cls-15{fill:#fff;}</style><clipPath id="clippath"><rect class="cls-2" x="-729.67" y="0" width="595.28" height="841.89"/></clipPath><clipPath id="clippath-1"><rect class="cls-2" x="0" y="0" width="595.28" height="841.89"/></clipPath><linearGradient id="linear-gradient" x1="8.77" y1="665.97" x2="262.53" y2="798.93" gradientUnits="userSpaceOnUse"><stop offset="0" stop-color="#8fddff"/><stop offset="1" stop-color="#d299ff"/></linearGradient><linearGradient id="linear-gradient-2" x1="-2053.7" y1="185.41" x2="-1707.29" y2="185.41" gradientTransform="translate(-1270.69 -313.48) rotate(-139.88)" xlink:href="#linear-gradient"/><radialGradient id="radial-gradient" cx="406.43" cy="577.91" fx="406.43" fy="577.91" r="266.96" gradientUnits="userSpaceOnUse"><stop offset="0" stop-color="#006cae" stop-opacity=".5"/><stop offset="1" stop-color="#006cae" stop-opacity="0"/></radialGradient><radialGradient id="radial-gradient-2" cx="363.95" cy="819.28" fx="363.95" fy="819.28" r="71.08" gradientUnits="userSpaceOnUse"><stop offset="0" stop-color="#50556e"/><stop offset="1" stop-color="#121630"/></radialGradient><linearGradient id="linear-gradient-3" x1="342.95" y1="754.11" x2="364.59" y2="825.1" gradientUnits="userSpaceOnUse"><stop offset="0" stop-color="#006cae" stop-opacity=".5"/><stop offset="1" stop-color="#813e91" stop-opacity=".6"/></linearGradient><radialGradient id="radial-gradient-3" cx="448.96" cy="819.47" fx="448.96" fy="819.47" r="72.83" xlink:href="#radial-gradient-2"/><linearGradient id="linear-gradient-4" x1="472.97" y1="753.83" x2="446.98" y2="822.58" xlink:href="#linear-gradient-3"/><linearGradient id="linear-gradient-5" x1="365.38" y1="626.01" x2="441.04" y2="763.73" gradientUnits="userSpaceOnUse"><stop offset="0" stop-color="#1cbaff"/><stop offset="1" stop-color="#b657ff"/></linearGradient><radialGradient id="radial-gradient-4" cx="348.6" cy="625.25" fx="348.6" fy="625.25" r="145.37" gradientUnits="userSpaceOnUse"><stop offset="0" stop-color="#25283b"/><stop offset="1" stop-color="#121630"/></radialGradient><linearGradient id="linear-gradient-6" x1="401.41" y1="121.81" x2="436.25" y2="171.5" gradientTransform="translate(.14 842.06) scale(1 -1)" gradientUnits="userSpaceOnUse"><stop offset="0" stop-color="#1cbaff"/><stop offset=".82" stop-color="#b657ff"/></linearGradient><linearGradient id="linear-gradient-7" x1="-60.28" y1="683.99" x2="-28.36" y2="785.09" xlink:href="#linear-gradient-5"/></defs><g id="_Лицо"><g class="cls-1"><polygon class="cls-13" points="-84.01 615.1 25.42 425.55 -193.45 425.55 -84.01 615.1 -84.01 615.1"/><path class="cls-13" d="M-9.76,11.26l181.51,314.38H-191.27L-9.76,11.26M-9.76-44.74l-230.01,398.38H220.25L-9.76-44.74h0Z"/></g></g><g id="_Оборот"><g class="cls-16"><polygon class="cls-3" points="-25.8 664.56 299.11 799.56 -32.66 662.8 -25.8 664.56"/><polygon class="cls-8" points="610.67 633.74 -49.31 886.57 622.73 626.71 610.67 633.74"/><polygon class="cls-13" points="406.43 585.09 215.21 916.3 597.66 916.3 406.43 585.09"/><polygon class="cls-4" points="406.43 585.09 215.21 916.3 597.66 916.3 406.43 585.09"/><polygon class="cls-5" points="386.5 766.48 376.65 772.62 374.03 761.31 363.18 765.42 362.81 753.82 351.37 755.72 352.39 749.59 325.03 796.98 353.71 792.2 363.92 819.43 390 774.25 386.5 766.48"/><polygon class="cls-9" points="369.71 789.39 366.48 775.45 353.09 780.51 352.64 766.21 341.75 768.02 325.03 796.98 353.71 792.2 363.92 819.43 383.51 785.5 381.84 781.82 369.71 789.39"/><polygon class="cls-6" points="460.5 749.24 461.58 755.72 450.14 753.82 449.77 765.42 438.92 761.31 436.3 772.62 426.45 766.48 423.01 774.11 449.18 819.43 459.38 792.2 488.07 796.98 460.5 749.24"/><polygon class="cls-7" points="443.39 789.39 446.62 775.45 460 780.51 460.45 766.21 471.35 768.02 488.07 796.98 459.38 792.2 449.18 819.43 429.59 785.5 431.25 781.82 443.39 789.39"/><polygon class="cls-11" points="406.43 622.8 413.18 632.24 421.64 624.3 426.41 634.87 436.25 628.73 438.87 640.04 449.73 635.93 450.09 647.53 461.54 645.62 459.63 657.07 471.23 657.43 467.13 668.29 478.43 670.91 472.29 680.75 482.87 685.53 474.92 693.98 484.36 700.73 474.92 707.48 482.87 715.93 472.29 720.71 478.43 730.55 467.13 733.17 471.23 744.03 459.63 744.39 461.54 755.84 450.09 753.93 449.73 765.53 438.87 761.43 436.25 772.73 426.41 766.59 421.64 777.16 413.18 769.22 406.43 778.66 399.69 769.22 391.23 777.16 386.45 766.59 376.61 772.73 373.99 761.43 363.14 765.53 362.77 753.93 351.33 755.84 353.23 744.39 341.63 744.03 345.74 733.17 334.43 730.55 340.57 720.71 330 715.93 337.94 707.48 328.5 700.73 337.94 693.98 330 685.53 340.57 680.75 334.43 670.91 345.74 668.29 341.63 657.43 353.23 657.07 351.33 645.62 362.77 647.53 363.14 635.93 373.99 640.04 376.61 628.73 386.45 634.87 391.23 624.3 399.69 632.24 406.43 622.8"/><circle class="cls-14" cx="405.81" cy="700.84" r="57.37"/><path class="cls-12" d="M442.95,675.15l-52.86,37.06,52.86-26.63v-10.43Z"/><path class="cls-15" d="M428.21,698.88l-37.04,15.21,35.12-7.81,7.28,12.62h-55.62l27.81-48.17,10.23,17.87,4.25-3.5-14.49-25.1-37.1,64.26h74.21l-14.65-25.38h0Z"/><path class="cls-13" d="M65.93,644.38L-4.04,765.58l-69.97-121.19H65.93M97.11,626.38H-105.19L-4.04,801.58l101.15-175.19h0Z"/><polygon class="cls-10" points="-36.09 598.11 -129.9 760.59 57.72 760.59 -36.09 598.11"/></g></g></svg>