<?xml version="1.0" encoding="UTF-8"?><svg id="_Лицо" xmlns="http://www.w3.org/2000/svg" xmlns:xlink="http://www.w3.org/1999/xlink" viewBox="0 0 595.28 841.89"><defs><style>.cls-1{clip-path:url(#clippath);}.cls-2{fill:none;}.cls-2,.cls-3,.cls-4,.cls-5,.cls-6,.cls-7,.cls-8,.cls-9,.cls-10,.cls-11,.cls-12,.cls-13,.cls-14,.cls-15,.cls-16,.cls-17,.cls-18,.cls-19,.cls-20{stroke-width:0px;}.cls-3{fill:url(#linear-gradient);}.cls-4{fill:url(#radial-gradient);}.cls-5{fill:url(#linear-gradient-11);}.cls-6{fill:url(#linear-gradient-12);}.cls-7{fill:url(#linear-gradient-10);}.cls-8{fill:url(#linear-gradient-8);opacity:.3;}.cls-21{clip-path:url(#clippath-1);}.cls-22{clip-path:url(#clippath-3);}.cls-23{clip-path:url(#clippath-2);}.cls-9{fill:url(#radial-gradient-2);}.cls-10{fill:url(#radial-gradient-3);}.cls-11{fill:url(#linear-gradient-9);fill-rule:evenodd;}.cls-12{fill:url(#linear-gradient-4);}.cls-13{fill:url(#linear-gradient-2);}.cls-14{fill:url(#linear-gradient-3);}.cls-15{fill:url(#linear-gradient-7);}.cls-16{fill:url(#linear-gradient-5);}.cls-17{fill:url(#linear-gradient-6);}.cls-18{fill:#292c42;}.cls-19{fill:url(#radial-gradient-4);opacity:.6;}.cls-20{fill:#fff;}</style><clipPath id="clippath"><rect class="cls-2" x="0" y="0" width="595.28" height="841.89"/></clipPath><linearGradient id="linear-gradient" x1=".89" y1="746.99" x2="209.06" y2="856.06" gradientUnits="userSpaceOnUse"><stop offset="0" stop-color="#8fddff"/><stop offset="1" stop-color="#d299ff"/></linearGradient><linearGradient id="linear-gradient-2" x1="1079.22" y1="607.49" x2="1419.39" y2="607.49" gradientTransform="translate(-890.88 1232.12) rotate(-60.53) scale(.85 .95)" xlink:href="#linear-gradient"/><linearGradient id="linear-gradient-3" x1="-709.17" y1="-224.52" x2="-362.76" y2="-224.52" gradientTransform="translate(16.92 156.76) rotate(-139.88)" xlink:href="#linear-gradient"/><linearGradient id="linear-gradient-4" x1="180.76" y1="633.13" x2="272.55" y2="809.71" gradientUnits="userSpaceOnUse"><stop offset="0" stop-color="#1cbaff"/><stop offset="1" stop-color="#b657ff"/></linearGradient><linearGradient id="linear-gradient-5" x1="530.51" y1="273.09" x2="663.19" y2="142.4" xlink:href="#linear-gradient-4"/><clipPath id="clippath-1"><rect class="cls-2" x="196.23" y="416.9" width="399.05" height="424.99"/></clipPath><radialGradient id="radial-gradient" cx="435.59" cy="438.44" fx="435.59" fy="438.44" r="321.1" gradientUnits="userSpaceOnUse"><stop offset="0" stop-color="#006cae" stop-opacity=".5"/><stop offset="1" stop-color="#006cae" stop-opacity="0"/></radialGradient><clipPath id="clippath-2"><polygon class="cls-2" points="435.59 447.09 205.58 845.47 665.6 845.47 435.59 447.09"/></clipPath><radialGradient id="radial-gradient-2" cx="380.58" cy="833.33" fx="380.58" fy="833.33" r="83.94" gradientUnits="userSpaceOnUse"><stop offset="0" stop-color="#393f5c"/><stop offset="1" stop-color="#121630"/></radialGradient><linearGradient id="linear-gradient-6" x1="360.95" y1="749.24" x2="386.35" y2="832.55" gradientUnits="userSpaceOnUse"><stop offset="0" stop-color="#006cae" stop-opacity=".5"/><stop offset="1" stop-color="#813e91" stop-opacity="0"/></linearGradient><radialGradient id="radial-gradient-3" cx="495.61" cy="833.37" fx="495.61" fy="833.37" r="84.06" xlink:href="#radial-gradient-2"/><linearGradient id="linear-gradient-7" x1="513.54" y1="748.92" x2="483.03" y2="829.6" xlink:href="#linear-gradient-6"/><linearGradient id="linear-gradient-8" x1="435.5" y1="774.74" x2="435.5" y2="605.49" gradientUnits="userSpaceOnUse"><stop offset="0" stop-color="#2baae2" stop-opacity=".4"/><stop offset=".14" stop-color="rgba(70,147,223,.55)" stop-opacity=".55"/><stop offset=".31" stop-color="rgba(100,123,219,.71)" stop-opacity=".71"/><stop offset=".49" stop-color="rgba(124,103,217,.84)" stop-opacity=".84"/><stop offset=".66" stop-color="rgba(141,90,215,.93)" stop-opacity=".93"/><stop offset=".84" stop-color="rgba(151,81,214,.98)" stop-opacity=".98"/><stop offset="1" stop-color="#9b4fd6"/></linearGradient><radialGradient id="radial-gradient-4" cx="367.63" cy="597.89" fx="367.63" fy="597.89" r="170.6" gradientUnits="userSpaceOnUse"><stop offset="0" stop-color="#25283b"/><stop offset="1" stop-color="#121630"/></radialGradient><linearGradient id="linear-gradient-9" x1="402.36" y1="610.66" x2="446.76" y2="728.19" gradientUnits="userSpaceOnUse"><stop offset="0" stop-color="#006cae" stop-opacity=".5"/><stop offset="1" stop-color="#006cae" stop-opacity="0"/></linearGradient><linearGradient id="linear-gradient-10" x1="428.45" y1="716.24" x2="599.7" y2="588.02" gradientUnits="userSpaceOnUse"><stop offset="0" stop-color="#1cbaff"/><stop offset="1" stop-color="#b657ff" stop-opacity=".8"/></linearGradient><clipPath id="clippath-3"><rect class="cls-2" x="334.8" y="741.93" width="201.59" height="31.83"/></clipPath><linearGradient id="linear-gradient-11" x1="394.59" y1="81.28" x2="351.34" y2="81.28" gradientTransform="translate(.14 842.06) scale(1 -1)" gradientUnits="userSpaceOnUse"><stop offset="0" stop-color="#3bc3ff"/><stop offset=".8" stop-color="#c375ff"/></linearGradient><linearGradient id="linear-gradient-12" x1="507.7" y1="81.28" x2="535.81" y2="81.28" xlink:href="#linear-gradient-11"/></defs><g class="cls-1"><polygon class="cls-3" points="-27.48 745.83 239.07 856.57 -33.1 744.39 -27.48 745.83"/><polygon class="cls-13" points="312.78 856.49 -51.84 323.64 321.58 865.95 312.78 856.49"/><polygon class="cls-14" points="606.02 550.93 -53.97 803.77 618.08 543.91 606.02 550.93"/><polygon class="cls-12" points="289.27 606.14 153.16 841.89 425.38 841.89 289.27 606.14"/><polygon class="cls-16" points="571.83 176.14 603.51 231.01 724.17 231.01 614.73 41.46 505.29 231.01 540.15 231.01 571.83 176.14"/><polygon class="cls-18" points="645.66 615.1 755.09 425.55 536.22 425.55 645.66 615.1 645.66 615.1"/><g class="cls-21"><polygon class="cls-18" points="435.59 447.09 205.58 845.47 665.6 845.47 435.59 447.09"/><polygon class="cls-4" points="435.59 447.09 205.58 845.47 665.6 845.47 435.59 447.09"/></g><g class="cls-23"><polygon class="cls-9" points="412.06 763.76 400.51 770.96 397.43 757.7 384.69 762.51 384.27 748.9 370.84 751.14 372.03 743.94 339.93 799.55 373.59 793.95 385.56 825.9 416.18 772.88 412.06 763.76"/><polygon class="cls-17" points="392.35 790.64 388.56 774.29 372.86 780.22 372.33 763.44 359.54 765.57 339.93 799.55 373.59 793.95 385.56 825.9 408.55 786.08 406.6 781.76 392.35 790.64"/><polygon class="cls-10" points="498.9 743.52 500.17 751.14 486.74 748.9 486.31 762.51 473.58 757.7 470.5 770.96 458.95 763.76 454.91 772.71 485.62 825.9 497.59 793.95 531.25 799.55 498.9 743.52"/><polygon class="cls-15" points="478.82 790.64 482.62 774.29 498.32 780.22 498.85 763.44 511.63 765.57 531.25 799.55 497.59 793.95 485.62 825.9 462.63 786.08 464.58 781.76 478.82 790.64"/><polygon class="cls-8" points="435.5 595.02 443.42 606.1 453.34 596.77 458.95 609.18 470.5 601.98 473.57 615.24 486.31 610.43 486.74 624.04 500.17 621.8 497.93 635.24 511.54 635.66 506.73 648.4 520 651.47 512.79 663.03 525.2 668.63 515.88 678.56 526.96 686.47 515.88 694.39 525.2 704.31 512.79 709.92 520 721.47 506.73 724.54 511.54 737.28 497.93 737.71 500.17 751.14 486.74 748.9 486.31 762.51 473.57 757.7 470.5 770.96 458.95 763.76 453.34 776.17 443.42 766.85 435.5 777.93 427.59 766.85 417.66 776.17 412.06 763.76 400.51 770.96 397.43 757.7 384.69 762.51 384.27 748.9 370.84 751.14 373.07 737.71 359.46 737.28 364.28 724.54 351.01 721.47 358.22 709.92 345.81 704.31 355.13 694.39 344.05 686.47 355.13 678.56 345.81 668.63 358.22 663.03 351.01 651.47 364.28 648.4 359.46 635.66 373.07 635.24 370.84 621.8 384.27 624.04 384.69 610.43 397.43 615.24 400.51 601.98 412.06 609.18 417.66 596.77 427.59 606.1 435.5 595.02"/><circle class="cls-19" cx="434.77" cy="686.6" r="67.33"/><path class="cls-11" d="M410.72,650.05c1.07-1.07,1.23-1.18,1.72-2.75.61-1.99.78-5.58.84-8.09h-.35c0,4.64-5.05,5.24-5.05,9.28v.59c0,.49.28.57.25.82l-.25,1.76c.31-.03,2.61-1.38,2.85-1.61ZM398.01,660.58c.41-.04.73-.83,1.08-1.27.38-.48.7-.76.97-1.38.67-1.57.79-1.96.65-3.92-.07-1.07-1.99-6.82-2.47-7.16.05.57.24.74.24,1.41v1.06c0,1.84-1.76,4-1.76,5.87v1.29c0,1.2,1.29,2.28,1.29,3.17v.94ZM494.55,698.75v-.24h-2.58c-1.02,0-1.79.29-2.7.35-.97.07-2.16-.11-2.96.09-1.34.34-3.86.81-4.82,1.41-1.14.72-2.42,1.94-3.17,3.06-.83,1.24-1.46,2.73-2.68,3.55.02-.67,1.19-2.91,1.51-3.89.43-1.3.95-2.62,1.36-4.04.42-1.44.65-2.96.89-4.51.15-.93.34-4.21.73-4.67,1.29-1.52,1.95-.83,3.85-1.55,1.27-.48,1.76-1.83,2.38-3.02.62-1.19,1.26-2.34,1.88-3.52.89-1.72,2.47-1.98,2.9-2.62-2.1.49-6.3,1.89-7.67,3.02-1.09.9-1.65,1.65-2.28,3-.39.83-.6,3.88-1.33,4.07v-3.05c0-2.41-.4-4.62-.79-6.6-.26-1.3-1.56-5.25-1.56-5.84v-.47c0-.71.41-1.41.79-1.79.76-.77.65-.53,1.77-.81,1.31-.33,2.15-1.36,2.54-2.75.36-1.28.65-2.88,1.05-4.11.55-1.68,2.18-2.51,2.31-2.98-1.17.31-5.76,2.87-6.55,3.67-.84.84-1.66,1.73-1.68,3.37-.02,1.66.27,3.76-.7,4.47-.09-.07-2.57-4.94-2.91-5.54-.55-.96-.97-1.73-1.62-2.6-.47-.63-1.57-1.92-1.57-2.77v-1.53c0-1.18,1.29-1.93,1.29-3.17v-.59c0-2.56-1.88-4.34-1.88-7.16v-.35c0-.67.24-.67.24-1.53-.68.5-2.58,6.91-2.58,8.57v.35c0,2.71,2.54,3.4,2.58,5.52-.45-.3-2.12-2.41-2.73-3.02-.86-.85-2.09-2.16-3-2.87-1.11-.87-2.23-1.67-3.22-2.65-1.43-1.42-1.03-2.19-1.03-4.61,0-1.65-1.88-3.35-2.79-4.26-.65-.65-1.17-1.09-1.67-1.85-.25-.38-.51-.6-.59-1.17-.07-.49-.13-1.17-.47-1.41,0,1.59.24,2.93.24,4.11-.01,2.13.27,2.14.63,3.83.76,3.51,3.43,3.04,4.42,4.51-.73-.17-3.96-2.27-5.17-2.82-1.6-.72-3.93-1.73-4.86-3.12-1.18-1.75-2.25-2.85-4.75-3.23-.94-.14-2.28-.54-3.11-.88-1.66-.68-1.38-1.07-2.3-1.69.22.97,2.74,3.78,3.41,4.7.97,1.34,2.75,3.05,5.05,3.05,2.16,0,2.94-.21,4.56.73.76.44,3.36,1.39,3.55,2.09-.53-.25-.87-.23-1.41-.59-.4-.27-.88-.57-1.29-.82-.7-.43-2.03-.94-3.17-.94h-.35c-1.85,0-9.75,2.16-9.98,3.05.46-.22,1.09-.47,1.76-.47h1.64c1.55,0,4.73,1.53,6.23,1.53h.47c2.62,0,3.58-1.53,4.58-1.53h1.64c1.72,0,9.87,6.45,10.22,7.75-1.22-.28-1.78-1.13-2.61-1.85-.46-.39-2.32-1.44-3.03-1.44h-3.29c-1.14,0-6.55.66-6.93,1.17,2.71,0,3.51.17,5.31,1.15.74.41,3.71,1.9,4.56,1.9h.94c1.39,0,2.28-.7,3.17-.7,2.13,0,2.66.44,3.62,1.67.78,1,1.66,1.9,2.39,3.01.73,1.11,3.75,5.74,3.85,6.95-1.82-.96-1.84-5.12-5.07-6.08-.75-.22-1.5-.6-2.12-.7-.85-.14-1.64-.16-2.51-.31-1.03-.18-1.54-.11-2.63-.19-.87-.06-1.45-.35-2.47-.35v.47h.59c2.35,0,4.48,3.25,5.84,4.61.8.8,1.7,2.07,3.2,2.09,2.18.02,3.22-.3,4.57.72,2.16,1.64,2.3,4.46,3.18,7.28.73,2.33,1.19,6.35,1.19,9.38-1.88-1.26.26-5.71-4.16-8.41-1.59-.97-2.55-1.28-4.32-2.02-.93-.39-4.13-1.32-4.7-1.68l-.1.14s.85.43.94.47c.26.12.67.42.91.62.78.66.81.9,1.34,1.71.77,1.16,1.39,2.74,2.05,4.05,2.83,5.65,4.42,2.02,7.18,4.92,1.3,1.37.79,2.76.61,4.91-.15,1.86-.61,3.61-.91,5.19-.32,1.7-.86,3.2-1.4,4.71-.27.74-.57,1.52-.84,2.21-.21.54-.82,1.58-.96,2.1-.46-.12-.47-.59-.47-1.17v-.23c0-1.79,1.17-3.34,1.17-5.52,0-2.3-.24-2.7-1.13-4.16-.7-1.15-1.22-2.23-2.13-3.15-1.22-1.23-4.15-4.57-5.43-5.25.13.54.32.62.68.97.51.5.3.53.61,1.15.74,1.46.45.92.59,2.82.08,1.04.12,2.08.12,3.29,0,1.33.23,2.2.24,3.17.02,1.98,1.08,3.75,2.38,4.43,1.38.71,2.66,2.17,2.66,4.15v.35c0,1.2-3.66,6.28-4.49,7.14-1.06,1.09-4.65,5.58-5.85,5.9,0-2,1.8-3.22,2.66-4.51.67-1.01,2.04-3.6,2.04-5.12,0-2.44-1.25-6.06-2.08-7.79-.63-1.32-2.38-6.1-3.21-6.66.05.66.59,1.46.59,2v2.23c0,1.76-1.05,3.98-1.61,5.32-.32.77-1.68,4.62-1.68,5.37v1.29c0,.86.92,2.56,1.31,3.15.68,1.02,1.39,1.29,1.39,3.08,0,2.57-.29,2.49-1.78,3.62-1.03.78-2.13,1.46-3.24,2.16-1.08.68-2.29,1.35-3.47,1.93-.69.34-3.48,1.31-3.48,1.92v.7c.89-.02,7.35-3.48,8.25-4.09,1.22-.82,2.59-1.61,3.65-2.58.89-.81,2.49-2.14,4.08-2.14h2.11c1.13,0,2.97,2.23,5.76,2.23h.71c.98,0,4.85-1.61,5.71-2.04,1.07-.52,4.56-1.95,5.91-1.95h1.88c.74,0,1.06.4,1.88.47-.44-.61-5.45-2.25-6.63-2.65-2.3-.79-4.81-1.58-7.82-1.58h-.12c-4.9,0-7.09,5.17-10.45,5.17.69-1.02,2.37-2.22,3.19-3.27.95-1.21,1.98-2.32,2.85-3.61.92-1.37,1.62-2.54,2.49-3.97.66-1.09.33-1.06,1.43-1.85.31-.22,1.94-.92,2.37-.92h.35c.64,0,.65.24,1.29.24h1.53c2.18,0,5.2-2.91,6.43-4.14,1.84-1.84,3.47-3.45,6.84-3.73ZM400.35,691.58c-.03-2.71.91-3.09,1.76-4.7-.57.15-4.32,4.25-4.82,4.93-.34.46-.79.72-1.1,1.25-.32.54-.66.97-1,1.47-.42.64-1.43,2.56-1.43,3.5v2c0,1.39,1.17,3.26,1.17,4.11v1.89s.47-.13.47-.13c.08-3.78,4.73-2.82,4.7-8.1,0-1.83.25-4.41.24-6.22ZM417.85,648.26h-.82c-1.95,0-3.73,2.11-5.17,2.11.32-.48,3.46-1.98,4.27-2.3,1.74-.7,3.5.13,5.69-.88,1.42-.66,2.35-2.06,3.28-3.3.54-.72,2.43-3.09,2.61-3.85-.94.63-.99,1.36-2.35,1.76-1.02.3-1.95.58-3.1.89-3.83,1.06-2.55,1.04-4.57,3.42-1.2,1.42-3.38,2.12-5.03,3.08-.86.5-4.34,2.82-5.16,2.82-.84,1.26-3.62,3.21-4.9,4.49-.81.81-1.53,1.54-2.35,2.35-.57.57-1.5,2.3-2.38,2.32-.34,1.47-2.31,3.58-3.07,5.27-.35.77-1.1,1.9-1.49,2.74-.43.93-.77,2.05-1.19,2.92-1.07-.28-.83-2.81-.82-4.23,0-1.77-.59-2.66-1.5-3.55-1-.99-4.89-3.38-6.37-3.73.14.52.88.72,1.31,1.27.38.48.56,1.08.8,1.67.41.98.72,2.85,1.01,4.04.32,1.31,1.07,2.37,2.33,2.72,1.31.37,2.66.77,2.66,2.28v.82c0,.59-.77,2.53-.97,3.5-.22,1.09-.55,2.5-.79,3.68-.46,2.28-.6,5.49-.6,8.21-.82-.6-.66-5.1-3.43-6.9-1.39-.91-1.62-1.14-3.43-1.74-.97-.32-3.03-.95-3.83-1.34.07.62.7.42,1.27.97.41.4.67.64.99,1.12.65.98.96,1.82,1.5,2.84,1.07,2.02,1.61,3.88,3.97,4.6,1.08.33,2.45,0,2.91,1.44.33,1.05.27,2.6.41,3.82.13,1.15.52,2.49.69,3.65.16,1.06.82,2.57.82,3.4l2.22,5.76c-1.35-.37-3.19-5.84-6.49-6.77-.9-.26-1.69-.48-2.59-.7-1.27-.32-1.72-.12-2.98-.31-1.15-.17-1.35-.33-2.96-.33h-3.29v.12c3.01,0,5.45,2.45,7.02,4.02,1.83,1.83,3.35,3.96,6.96,3.96.48,0,.74-.23,1.41-.23h.35c2.14,0,3,1.25,3.85,2.61.84,1.35,1.52,2.62,2.4,3.95.91,1.37,1.9,2.43,2.8,3.66.75,1.03,2.42,2.34,3.05,3.29-2.89,0-5.32-5.17-10.34-5.17-.64,0-3.54.33-4.07.51-.7.23-1.08.15-1.87.48-.7.29-.82.35-1.64.59-.87.25-6.11,2.27-6.39,2.65.77-.02,1.16-.35,2-.35h2c1.48,0,4.52,1.35,5.57,1.95.65.38,4.75,1.92,5.59,1.92h.35c3.58,0,4.27-2.23,6.23-2.23h1.06c.66,0,2.02.38,2.52.65.87.46,1.01.76,1.73,1.33,1.01.79,2.48,2,3.58,2.65,1.33.78,2.58,1.6,3.93,2.29,1.42.73,2.79,1.21,4.21,1.9.06-.26.12-.27.12-.59v-.12c0-.5-2.58-1.52-3.13-1.8-1.18-.59-2.06-1.21-3.15-1.78-1.1-.58-5.35-3.2-5.35-4.4v-1.53c0-2.95,2.58-3.11,2.58-7.28v-.47c0-.83-1.33-4.62-1.68-5.36-.45-.95-1.61-4.22-1.61-5.44v-1.06c0-1,.51-1.75.59-2.7-1.08.79-4.93,10.84-4.93,13.27v.94c0,1.96,1.17,3.99,1.99,5.17,1.09,1.56,2.07,2.26,2.59,4.46-1.71-.14-10.22-10.93-10.22-13.39v-.47h-.59c-.14-.6-1.22-2.91-1.53-3.64-.38-.9-.93-2.79-1.22-3.83-.61-2.19-1.36-6.21-1.36-8.85v-.94c0-1.91,1.74-3.02,3.53-3.17,1.92-.16,3.05-1.41,3.75-2.82.73-1.46,1.4-3.05,2.17-4.52,1.35-2.57,2.97-2.42,3.47-3.11-1.78,0-7.58,2.66-8.83,3.5-1.48.99-2.14,1.67-2.78,3.44-.58,1.6-.04,3.96-1.3,4.8,0-3.67.31-6.55,1.13-9.44.22-.77.36-1.45.52-2.18.13-.61.45-1.2.63-1.95.4-1.66.99-2.15,2.1-3.07,1.95-1.62,4.53,1.33,7.67-2.89.65-.88,1.62-2.19,2.47-2.82.65-.48.59-.74,1.52-1.06.42-.14,1.7-.35,1.81-.77h-.7c-.84,0-3.85.34-4.79.5-1.94.34-2.42.38-4.1,1.06-3.35,1.35-2.83,5.36-4.62,5.84.42-1.79,2.56-5.13,3.52-6.58.63-.95,1.39-2.03,2.09-2.96.74-.98,1.37-1.86,3.08-1.86h.94c1.15,0,1.72.59,3.05.59h.7c2.18,0,5.32-3.05,7.75-3.05h.59l1.29.13-.14-.36-7.59-1.07-.02.13h-1.53c-3.33,0-4.52,3.17-5.99,3.29.21-.8,3.75-3.68,4.55-4.49.69-.7,1.72-1.27,2.56-1.9.81-.6,1.77-1.36,3.1-1.36h.35c2.22,0,2.55,1.53,5.05,1.53h.59c1.64,0,4.66-1.53,6.34-1.53l1.18-.05,1.76.25c-.78-.65-7.63-2.79-9.4-2.79ZM403.7,650.06c.67,0,1.21-.54,1.21-1.21s-.54-1.21-1.21-1.21-1.21.54-1.21,1.21.54,1.21,1.21,1.21ZM411.37,653.42c0,.67.54,1.21,1.21,1.21s1.21-.54,1.21-1.21-.54-1.21-1.21-1.21-1.21.54-1.21,1.21ZM415.55,645.48c.67,0,1.21-.54,1.21-1.21s-.54-1.21-1.21-1.21-1.21.54-1.21,1.21.54,1.21,1.21,1.21ZM393.47,660.83c.67,0,1.21-.54,1.21-1.21s-.54-1.21-1.21-1.21-1.21.54-1.21,1.21.54,1.21,1.21,1.21ZM401.95,660.96c0,.67.54,1.21,1.21,1.21s1.21-.54,1.21-1.21-.54-1.21-1.21-1.21-1.21.54-1.21,1.21ZM387.68,674.96c0-.67-.54-1.21-1.21-1.21s-1.21.54-1.21,1.21.54,1.21,1.21,1.21,1.21-.54,1.21-1.21ZM395.49,673.89c0,.67.54,1.21,1.21,1.21s1.21-.54,1.21-1.21-.54-1.21-1.21-1.21-1.21.54-1.21,1.21ZM394.81,690.18c.67,0,1.21-.54,1.21-1.21s-.54-1.21-1.21-1.21-1.21.54-1.21,1.21.54,1.21,1.21,1.21ZM385.52,692.74c0-.67-.54-1.21-1.21-1.21s-1.21.54-1.21,1.21.54,1.21,1.21,1.21,1.21-.54,1.21-1.21ZM389.29,709.97c0-.67-.54-1.21-1.21-1.21s-1.21.54-1.21,1.21.54,1.21,1.21,1.21,1.21-.54,1.21-1.21ZM397.51,705.49c0,.67.54,1.21,1.21,1.21s1.21-.54,1.21-1.21-.54-1.21-1.21-1.21-1.21.54-1.21,1.21ZM464.82,650.06c.67,0,1.21-.54,1.21-1.21s-.54-1.21-1.21-1.21-1.21.54-1.21,1.21.54,1.21,1.21,1.21ZM457.15,653.42c0-.67-.54-1.21-1.21-1.21s-1.21.54-1.21,1.21.54,1.21,1.21,1.21,1.21-.54,1.21-1.21ZM452.98,645.48c.67,0,1.21-.54,1.21-1.21s-.54-1.21-1.21-1.21-1.21.54-1.21,1.21.54,1.21,1.21,1.21ZM475.06,660.83c.67,0,1.21-.54,1.21-1.21s-.54-1.21-1.21-1.21-1.21.54-1.21,1.21.54,1.21,1.21,1.21ZM466.58,660.96c0-.67-.54-1.21-1.21-1.21s-1.21.54-1.21,1.21.54,1.21,1.21,1.21,1.21-.54,1.21-1.21ZM480.85,674.96c0,.67.54,1.21,1.21,1.21s1.21-.54,1.21-1.21-.54-1.21-1.21-1.21-1.21.54-1.21,1.21ZM473.04,673.89c0-.67-.54-1.21-1.21-1.21s-1.21.54-1.21,1.21.54,1.21,1.21,1.21,1.21-.54,1.21-1.21ZM474.92,688.97c0-.67-.54-1.21-1.21-1.21s-1.21.54-1.21,1.21.54,1.21,1.21,1.21,1.21-.54,1.21-1.21ZM483,692.74c0,.67.54,1.21,1.21,1.21s1.21-.54,1.21-1.21-.54-1.21-1.21-1.21-1.21.54-1.21,1.21ZM479.23,709.97c0,.67.54,1.21,1.21,1.21s1.21-.54,1.21-1.21-.54-1.21-1.21-1.21-1.21.54-1.21,1.21ZM471.02,705.49c0-.67-.54-1.21-1.21-1.21s-1.21.54-1.21,1.21.54,1.21,1.21,1.21,1.21-.54,1.21-1.21ZM433.92,728.56c-1.49,0-2.71,1.22-2.71,2.71s1.22,2.71,2.71,2.71,2.71-1.22,2.71-2.71-1.22-2.71-2.71-2.71ZM439.99,729.17c-.85,0-1.55.7-1.55,1.55s.7,1.55,1.55,1.55,1.55-.7,1.55-1.55-.7-1.55-1.55-1.55ZM428.05,729.17c-.85,0-1.55.7-1.55,1.55s.7,1.55,1.55,1.55,1.55-.7,1.55-1.55-.7-1.55-1.55-1.55ZM423.09,728.69c-.6,0-1.1.49-1.1,1.1s.49,1.1,1.1,1.1,1.1-.49,1.1-1.1-.49-1.1-1.1-1.1ZM445.1,728.69c-.6,0-1.1.49-1.1,1.1s.49,1.1,1.1,1.1,1.1-.49,1.1-1.1-.49-1.1-1.1-1.1Z"/></g><path class="cls-18" d="M719.91,11.26l181.51,314.38h-363.02L719.91,11.26M719.91-44.74l-230.01,398.38h460.01L719.91-44.74h0Z"/><path class="cls-7" d="M595.22,578.24l-175.25,122.89,175.25-88.29v-34.59Z"/><path class="cls-20" d="M458.02,687.82l-36.98,15.19,35.06-7.8,7.27,12.6h-55.52l27.76-48.09,10.22,17.84,4.24-3.5-14.46-25.05-37.04,64.15h74.08l-14.63-25.34h0Z"/><g class="cls-22"><path class="cls-5" d="M392.76,759.06l1.97,3.45-43.25-1.76,41.28-1.69Z"/><path class="cls-6" d="M509.8,759.06l-1.96,3.45,28.11-1.76-26.15-1.69Z"/><path class="cls-20" d="M343.02,743.48h26.52v3.97h-22.55v26.17h-3.97v-30.14ZM450.93,773.61h4.56l13.68-23.85,11.49,19.85h-18.17l-2.28,3.97h27.34l-18.4-31.79-18.23,31.81ZM437.63,743.48h-19.95v30.14h3.97v-26.17h15.97c4.4,0,7.6,2.18,7.6,5.19s-3.2,5.19-7.6,5.19h-10.44l-2.3,3.97h12.73c6.7,0,11.57-3.85,11.57-9.16s-4.87-9.16-11.57-9.16h0ZM378.89,763.9l4.29.52-5.28,9.2h-4.58l5.57-9.71h0ZM409.86,773.61h-4.58l-13.7-23.83-3.7,6.45-4.92.59,8.62-15.02,18.28,31.82ZM519.56,756.83l-4.93-.59-3.7-6.45-13.67,23.83h-4.58l18.25-31.82,8.63,15.03ZM529.2,773.61h-4.6l-5.28-9.2,4.3-.52,5.58,9.72Z"/></g></g></svg>