<?xml version="1.0" encoding="UTF-8"?><svg xmlns="http://www.w3.org/2000/svg" xmlns:xlink="http://www.w3.org/1999/xlink" viewBox="0 0 595.28 841.89"><defs><style>.cls-1{clip-path:url(#clippath);}.cls-2{fill:none;}.cls-2,.cls-3,.cls-4,.cls-5{stroke-width:0px;}.cls-3{fill:url(#linear-gradient);}.cls-4{fill:url(#radial-gradient);}.cls-6{clip-path:url(#clippath-1);}.cls-5{fill:#292c42;}</style><clipPath id="clippath"><rect class="cls-2" x="-729.67" y="0" width="595.28" height="841.89"/></clipPath><clipPath id="clippath-1"><rect class="cls-2" x="0" y="0" width="595.28" height="841.89"/></clipPath><radialGradient id="radial-gradient" cx="406.43" cy="577.91" fx="406.43" fy="577.91" r="266.96" gradientUnits="userSpaceOnUse"><stop offset="0" stop-color="#006cae" stop-opacity=".5"/><stop offset="1" stop-color="#006cae" stop-opacity="0"/></radialGradient><linearGradient id="linear-gradient" x1="-60.28" y1="683.99" x2="-28.36" y2="785.09" gradientUnits="userSpaceOnUse"><stop offset="0" stop-color="#1cbaff"/><stop offset="1" stop-color="#b657ff"/></linearGradient></defs><g id="_Лицо"><g class="cls-1"><polygon class="cls-5" points="-84.01 615.1 25.42 425.55 -193.45 425.55 -84.01 615.1 -84.01 615.1"/><path class="cls-5" d="M-9.76,11.26l181.51,314.38H-191.27L-9.76,11.26M-9.76-44.74l-230.01,398.38H220.25L-9.76-44.74h0Z"/></g></g><g id="_Оборот"><g class="cls-6"><polygon class="cls-5" points="406.43 585.09 215.21 916.3 597.66 916.3 406.43 585.09"/><polygon class="cls-4" points="406.43 585.09 215.21 916.3 597.66 916.3 406.43 585.09"/><path class="cls-5" d="M65.93,644.38L-4.04,765.58l-69.97-121.19H65.93M97.11,626.38H-105.19L-4.04,801.58l101.15-175.19h0Z"/><polygon class="cls-3" points="-36.09 598.11 -129.9 760.59 57.72 760.59 -36.09 598.11"/></g></g></svg>